<svg width="18" height="19" viewBox="0 0 18 19" fill="none" xmlns="http://www.w3.org/2000/svg">
<path id="image 2 (Traced)" fill-rule="evenodd" clip-rule="evenodd" d="M8.26045 0.511269C7.33063 0.61849 6.5841 0.782826 5.91884 1.02671C3.1025 2.05916 0.976987 4.4157 0.257004 7.30398C0.0498863 8.13481 0.00463867 8.52936 0.00463867 9.50474C0.00463867 10.4801 0.0498863 10.8747 0.257004 11.7055C1.05734 14.9161 3.58853 17.4473 6.79914 18.2476C7.62997 18.4548 8.02452 18.5 8.9999 18.5C9.97528 18.5 10.3698 18.4548 11.2007 18.2476C14.4113 17.4473 16.9425 14.9161 17.7428 11.7055C17.9499 10.8747 17.9952 10.4801 17.9952 9.50474C17.9952 8.52936 17.9499 8.13481 17.7428 7.30398C17.0226 4.41492 14.9011 2.06286 12.081 1.02681C11.6242 0.85899 10.822 0.655991 10.3028 0.576834C9.95162 0.523277 8.54711 0.478205 8.26045 0.511269ZM9.65133 1.93493C10.4763 2.01504 11.1913 2.19149 11.9352 2.49847C13.7228 3.23616 15.2685 4.7818 16.0062 6.56942C16.7943 8.47932 16.7943 10.5302 16.0062 12.4401C15.2685 14.2277 13.7228 15.7733 11.9352 16.511C10.0253 17.2992 7.97449 17.2992 6.06458 16.511C4.27697 15.7733 2.73133 14.2277 1.99363 12.4401C1.20548 10.5302 1.20548 8.47932 1.99363 6.56942C2.73133 4.7818 4.27697 3.23616 6.06458 2.49847C7.22419 2.01993 8.48577 1.82173 9.65133 1.93493ZM12.2042 6.49677C12.1254 6.53051 11.3039 7.32602 9.92461 8.70447L7.76829 10.8594L6.86115 9.95517C5.91856 9.01553 5.78088 8.90856 5.512 8.9069C5.32537 8.90574 5.03255 9.0661 4.92529 9.22822C4.81698 9.39188 4.78321 9.65037 4.84483 9.84394C4.87892 9.95109 5.14794 10.2416 6.10775 11.2075C6.91305 12.018 7.37518 12.4573 7.46817 12.5008C7.65149 12.5865 7.8854 12.5857 8.06446 12.4986C8.26823 12.3995 13.0616 7.59898 13.1359 7.41954C13.2434 7.16017 13.1717 6.80939 12.9742 6.62783C12.7794 6.44871 12.4483 6.39233 12.2042 6.49677Z" fill="white"/>
</svg>
